<svg xmlns="http://www.w3.org/2000/svg" xmlns:xlink="http://www.w3.org/1999/xlink" data-v-0dd9719b="" version="1.0" preserveAspectRatio="xMidYMid meet" color-interpolation-filters="sRGB" style="margin: auto;" viewBox="113 62.34 114 125.32">   <g data-v-0dd9719b="" fill="#333" class="icon-text-wrapper icon-svg-group iconsvg" transform="translate(113,62.3392219543457)"><g class="iconsvg-imagesvg" transform="matrix(1,0,0,1,0,0)" opacity="1"><g><rect fill="#333" fill-opacity="0" stroke-width="2" x="0" y="0" width="114.00000000000003" height="125.32154871050726" class="image-rect"></rect> <svg x="0" y="0" width="114.00000000000003" height="125.32154871050726" filtersec="colorsb4823998284" class="image-svg-svg primary" style="overflow: visible;"><svg xmlns="http://www.w3.org/2000/svg" viewBox="0.027584196999669075 0 90.94742584228516 99.97974395751953"><g fill-rule="evenodd"><path d="M22.8 28.3A37.32 37.32 0 1 1 3 77.21 37.3 37.3 0 0 1 22.8 28.3" fill="#0131b9"></path><path d="M30.76 41C1.66 54 1.27 84.61 28.88 99 19 82.51 29.7 65.69 39.64 62.09L69 49.69a28.36 28.36 0 0 0 3.87-1.76c9.34-5.27 13-18.62 6.47-26.86-.05 0-36.22 14.4-48.58 19.93z" fill="#1a85f8" opacity=".8"></path><path d="M29.09 46.11l1-.46 50.15-21.2A19.72 19.72 0 0 0 89.73 0L22.8 28.3A37.31 37.31 0 0 0 28.88 99a29.22 29.22 0 0 1 .21-52.91" fill="#2ddaff" opacity=".8"></path></g></svg></svg></g></g> <g transform="translate(431,302.3215560913086)"><g data-gra="path-name" fill-rule="" class="tp-name iconsvg-namesvg" opacity="1" transform="matrix(1,0,0,1,0,0)"><g transform="scale(0.35999999999999927)"><g><path d="" transform="translate(0, 0)"></path></g></g></g></g></g><defs v-gra="od"></defs></svg>